999
dxflib 3.17.0.0
  0
SECTION
  2
HEADER
  9
$ACADVER
  1
AC1015
  9
$HANDSEED
  5
FFFF
  9
$ANGBASE
 50
0.0
  9
$ANGDIR
 70
0
  9
$ATTMODE
 70
1
  9
$AUNITS
 70
0
  9
$AUPREC
 70
0
  9
$CECOLOR
 62
178
  9
$CELTSCALE
 40
1.0
  9
$CHAMFERA
 40
0.0
  9
$CHAMFERB
 40
0.0
  9
$CHAMFERC
 40
0.0
  9
$CHAMFERD
 40
0.0
  9
$CMLJUST
 70
0
  9
$CMLSCALE
 40
1.0
  9
$DIMADEC
 70
0
  9
$DIMALT
 70
0
  9
$DIMALTD
 70
2
  9
$DIMALTF
 40
25.3999999999999986
  9
$DIMALTRND
 40
0.0
  9
$DIMALTTD
 70
2
  9
$DIMALTTZ
 70
0
  9
$DIMALTU
 70
2
  9
$DIMALTZ
 70
0
  9
$DIMAPOST
  1

  9
$DIMASZ
 40
2.5
  9
$DIMATFIT
 70
3
  9
$DIMAUNIT
 70
0
  9
$DIMAZIN
 70
2
  9
$DIMBLK
  1

  9
$DIMBLK1
  1

  9
$DIMBLK2
  1

  9
$DIMCEN
 40
0.09
  9
$DIMCLRD
 70
178
  9
$DIMCLRE
 70
178
  9
$DIMCLRT
 70
178
  9
$DIMDEC
 70
4
  9
$DIMDLE
 40
0.0
  9
$DIMDLI
 40
0.38
  9
$DIMDSEP
 70
46
  9
$DIMEXE
 40
1.25
  9
$DIMEXO
 40
0.625
  9
$DIMFRAC
 70
0
  9
$DIMGAP
 40
0.625
  9
$DIMJUST
 70
0
  9
$DIMLDRBLK
  1

  9
$DIMLFAC
 40
1.0
  9
$DIMLIM
 70
0
  9
$DIMLUNIT
 70
2
  9
$DIMLWD
 70
-2
  9
$DIMLWE
 70
-2
  9
$DIMPOST
  1

  9
$DIMRND
 40
0.0
  9
$DIMSAH
 70
0
  9
$DIMSCALE
 40
1.0
  9
$DIMSD1
 70
0
  9
$DIMSD2
 70
0
  9
$DIMSE1
 70
0
  9
$DIMSE2
 70
0
  9
$DIMSOXD
 70
0
  9
$DIMTAD
 70
0
  9
$DIMTDEC
 70
4
  9
$DIMTFAC
 40
1.0
  9
$DIMTIH
 70
1
  9
$DIMTIX
 70
0
  9
$DIMTM
 40
0.0
  9
$DIMTOFL
 70
0
  9
$DIMTOH
 70
1
  9
$DIMTOL
 70
0
  9
$DIMTOLJ
 70
1
  9
$DIMTP
 40
0.0
  9
$DIMTSZ
 40
0.0
  9
$DIMTVP
 40
0.0
  9
$DIMTXSTY
  7
Standard
  9
$DIMTXT
 40
2.5
  9
$DIMTZIN
 70
0
  9
$DIMUPT
 70
0
  9
$DIMZIN
 70
8
  9
$DISPSILH
 70
0
  9
$DWGCODEPAGE
  3
ANSI_1252
  9
$ELEVATION
 40
0.0
  9
$EXTMAX
 10
-100000000000000000000.0
 20
-100000000000000000000.0
 30
-100000000000000000000.0
  9
$EXTMIN
 10
100000000000000000000.0
 20
100000000000000000000.0
 30
100000000000000000000.0
  9
$FILLETRAD
 40
0.5
  9
$FILLMODE
 70
1
  9
$INSBASE
 10
0.0
 20
0.0
 30
0.0
  9
$INSUNITS
 70
4
  9
$LIMCHECK
 70
0
  9
$LIMMAX
 10
12.0
 20
9.0
  9
$LIMMIN
 10
0.0
 20
0.0
  9
$LTSCALE
 40
1.0
  9
$LUNITS
 70
2
  9
$LUPREC
 70
4
  9
$MAXACTVP
 70
64
  9
$MEASUREMENT
 70
1
  9
$MIRRTEXT
 70
1
  9
$ORTHOMODE
 70
0
  9
$PDMODE
 70
0
  9
$PDSIZE
 40
0.0
  9
$PELEVATION
 40
0.0
  9
$PEXTMAX
 10
0.0
 20
0.0
 30
0.0
  9
$PEXTMIN
 10
0.0
 20
0.0
 30
0.0
  9
$PINSBASE
 10
0.0
 20
0.0
 30
0.0
  9
$PLIMCHECK
 70
0
  9
$PLIMMAX
 10
277.0
 20
202.5
  9
$PLIMMIN
 10
-20.0
 20
-7.5
  9
$PLINEGEN
 70
0
  9
$PLINEWID
 40
0.0
  9
$PROXYGRAPHICS
 70
1
  9
$PSLTSCALE
 70
1
  9
$PUCSNAME
  2

  9
$PUCSORG
 10
0.0
 20
0.0
 30
0.0
  9
$PUCSXDIR
 10
1.0
 20
0.0
 30
0.0
  9
$PUCSYDIR
 10
0.0
 20
1.0
 30
0.0
  9
$QTEXTMODE
 70
0
  9
$REGENMODE
 70
1
  9
$SHADEDGE
 70
3
  9
$SHADEDIF
 70
70
  9
$SKETCHINC
 40
0.1
  9
$SKPOLY
 70
0
  9
$SPLFRAME
 70
0
  9
$SPLINESEGS
 70
8
  9
$SPLINETYPE
 70
6
  9
$SURFTAB1
 70
6
  9
$SURFTAB2
 70
6
  9
$SURFTYPE
 70
6
  9
$SURFU
 70
6
  9
$SURFV
 70
6
  9
$TEXTSIZE
 40
0.2
  9
$TEXTSTYLE
  7
Standard
  9
$THICKNESS
 40
0.0
  9
$TILEMODE
 70
1
  9
$TRACEWID
 40
0.05
  9
$TREEDEPTH
 70
3020
  9
$UCSNAME
  2

  9
$UCSORG
 10
0.0
 20
0.0
 30
0.0
  9
$UCSXDIR
 10
1.0
 20
0.0
 30
0.0
  9
$UCSYDIR
 10
0.0
 20
1.0
 30
0.0
  9
$UNITMODE
 70
0
  9
$USERI1
 70
0
  9
$USERI2
 70
0
  9
$USERI3
 70
0
  9
$USERI4
 70
0
  9
$USERI5
 70
0
  9
$USERR1
 40
0.0
  9
$USERR2
 40
0.0
  9
$USERR3
 40
0.0
  9
$USERR4
 40
0.0
  9
$USERR5
 40
0.0
  9
$USRTIMER
 70
1
  9
$VISRETAIN
 70
1
  0
ENDSEC
  0
SECTION
  2
TABLES
  0
TABLE
  2
VPORT
  5
8
100
AcDbSymbolTable
 70
1
  0
VPORT
  5
30
100
AcDbSymbolTableRecord
100
AcDbViewportTableRecord
  2
*Active
 70
0
 10
0.0
 20
0.0
 11
1.0
 21
1.0
 12
286.3055555555554861
 22
148.5
 13
0.0
 23
0.0
 14
10.0
 24
10.0
 15
10.0
 25
10.0
 16
0.0
 26
0.0
 36
1.0
 17
0.0
 27
0.0
 37
0.0
 40
297.0
 41
1.92798353909465
 42
50.0
 43
0.0
 44
0.0
 50
0.0
 51
0.0
 71
0
 72
100
 73
1
 74
3
 75
1
 76
1
 77
0
 78
0
281
0
 65
1
110
0.0
120
0.0
130
0.0
111
1.0
121
0.0
131
0.0
112
0.0
122
1.0
132
0.0
 79
0
146
0.0
  0
ENDTAB
  0
TABLE
  2
LTYPE
  5
5
100
AcDbSymbolTable
 70
54
  0
LTYPE
  5
16
100
AcDbSymbolTableRecord
100
AcDbLinetypeTableRecord
  2
Continuous
 70
0
  3
Solid line
 72
65
 73
0
 40
0.0
  0
LTYPE
  5
31
100
AcDbSymbolTableRecord
100
AcDbLinetypeTableRecord
  2
ACAD_ISO08W100
 70
0
  3
ISO long-dash short-dash ____ __ ____ __ ____ _
 72
65
 73
4
 40
36.0
 49
24.0
 74
0
 49
-3.0
 74
0
 49
6.0
 74
0
 49
-3.0
 74
0
  0
LTYPE
  5
32
100
AcDbSymbolTableRecord
100
AcDbLinetypeTableRecord
  2
HIDDEN2
 70
0
  3
Hidden (.5x) _ _ _ _ _ _ _ _ _ _ _ _ _ _ _ _ _ 
 72
65
 73
2
 40
4.7624999999999993
 49
3.1749999999999998
 74
0
 49
-1.5874999999999999
 74
0
  0
LTYPE
  5
33
100
AcDbSymbolTableRecord
100
AcDbLinetypeTableRecord
  2
ACAD_ISO09W100
 70
0
  3
ISO long-dash double-short-dash ____ __ __ ____
 72
65
 73
6
 40
45.0
 49
24.0
 74
0
 49
-3.0
 74
0
 49
6.0
 74
0
 49
-3.0
 74
0
 49
6.0
 74
0
 49
-3.0
 74
0
  0
LTYPE
  5
34
100
AcDbSymbolTableRecord
100
AcDbLinetypeTableRecord
  2
HIDDEN
 70
0
  3
Hidden __ __ __ __ __ __ __ __ __ __ __ __ __ __
 72
65
 73
2
 40
9.5249999999999986
 49
6.3499999999999996
 74
0
 49
-3.1749999999999998
 74
0
  0
LTYPE
  5
35
100
AcDbSymbolTableRecord
100
AcDbLinetypeTableRecord
  2
DRAINAGE2
 70
0
  3
Drainage reversed----<----<----<----
 72
65
 73
1
 40
5.0800000000000001
 49
5.0800000000000001
 74
0
  0
LTYPE
  5
15
100
AcDbSymbolTableRecord
100
AcDbLinetypeTableRecord
  2
ByLayer
 70
0
  3

 72
65
 73
0
 40
0.0
  0
LTYPE
  5
36
100
AcDbSymbolTableRecord
100
AcDbLinetypeTableRecord
  2
ACAD_ISO06W100
 70
0
  3
ISO long-dash triple-dot ____ ... ____ ... ____
 72
65
 73
8
 40
36.0000000000000071
 49
24.0
 74
0
 49
-2.9500000000000002
 74
0
 49
0.1
 74
0
 49
-2.9000000000000004
 74
0
 49
0.1
 74
0
 49
-2.9000000000000004
 74
0
 49
0.1
 74
0
 49
-2.9500000000000002
 74
0
  0
LTYPE
  5
37
100
AcDbSymbolTableRecord
100
AcDbLinetypeTableRecord
  2
GAS_LINE
 70
0
  3
Gas line ----GAS----GAS----GAS----GAS----GAS----GAS--
 72
65
 73
2
 40
17.7800000000000011
 49
12.6999999999999993
 74
0
 49
-5.0800000000000001
 74
0
  0
LTYPE
  5
38
100
AcDbSymbolTableRecord
100
AcDbLinetypeTableRecord
  2
CENTERX2
 70
0
  3
Center (2x) ________  __  ________  __  _____
 72
65
 73
4
 40
101.6000000000000085
 49
63.5
 74
0
 49
-12.6999999999999993
 74
0
 49
12.6999999999999993
 74
0
 49
-12.6999999999999993
 74
0
  0
LTYPE
  5
39
100
AcDbSymbolTableRecord
100
AcDbLinetypeTableRecord
  2
ACAD_ISO02W100
 70
0
  3
ISO dash __ __ __ __ __ __ __ __ __ __ __ __ __
 72
65
 73
2
 40
15.0
 49
12.0
 74
0
 49
-3.0
 74
0
  0
LTYPE
  5
3A
100
AcDbSymbolTableRecord
100
AcDbLinetypeTableRecord
  2
ACAD_ISO15W100
 70
0
  3
ISO double-dash triple-dot __ __ . . . __ __ . .
 72
65
 73
10
 40
39.0000000000000071
 49
12.0
 74
0
 49
-3.0
 74
0
 49
12.0
 74
0
 49
-2.9500000000000002
 74
0
 49
0.1
 74
0
 49
-2.9000000000000004
 74
0
 49
0.1
 74
0
 49
-2.9000000000000004
 74
0
 49
0.1
 74
0
 49
-2.9500000000000002
 74
0
  0
LTYPE
  5
3B
100
AcDbSymbolTableRecord
100
AcDbLinetypeTableRecord
  2
TRACKS
 70
0
  3
Tracks -|-|-|-|-|-|-|-|-|-|-|-|-|-|-|-|-|-|-|-|-|-|-|-|-
 72
65
 73
1
 40
3.8100000000000001
 49
3.8100000000000001
 74
0
  0
LTYPE
  5
3C
100
AcDbSymbolTableRecord
100
AcDbLinetypeTableRecord
  2
DIVIDE
 70
0
  3
Divide ____ . . ____ . . ____ . . ____ . . ____
 72
65
 73
6
 40
31.7500000000000036
 49
12.6999999999999993
 74
0
 49
-6.2999999999999998
 74
0
 49
0.1
 74
0
 49
-6.25
 74
0
 49
0.1
 74
0
 49
-6.2999999999999998
 74
0
  0
LTYPE
  5
3D
100
AcDbSymbolTableRecord
100
AcDbLinetypeTableRecord
  2
CENTER
 70
0
  3
Center ____ _ ____ _ ____ _ ____ _ ____ _ ____
 72
65
 73
4
 40
50.8000000000000043
 49
31.75
 74
0
 49
-6.3499999999999996
 74
0
 49
6.3499999999999996
 74
0
 49
-6.3499999999999996
 74
0
  0
LTYPE
  5
3E
100
AcDbSymbolTableRecord
100
AcDbLinetypeTableRecord
  2
DASHED
 70
0
  3
Dashed __ __ __ __ __ __ __ __ __ __ __ __ __ _
 72
65
 73
2
 40
19.0499999999999972
 49
12.6999999999999993
 74
0
 49
-6.3499999999999996
 74
0
  0
LTYPE
  5
3F
100
AcDbSymbolTableRecord
100
AcDbLinetypeTableRecord
  2
DASHDOT2
 70
0
  3
Dash dot (.5x) _._._._._._._._._._._._._._._.
 72
65
 73
4
 40
12.6999999999999993
 49
6.3499999999999996
 74
0
 49
-3.125
 74
0
 49
0.1
 74
0
 49
-3.125
 74
0
  0
LTYPE
  5
40
100
AcDbSymbolTableRecord
100
AcDbLinetypeTableRecord
  2
FENCELINE1
 70
0
  3
Fenceline circle ----0-----0----0-----0----0-----0--
 72
65
 73
2
 40
8.8900000000000006
 49
6.3499999999999996
 74
0
 49
-2.54
 74
0
  0
LTYPE
  5
41
100
AcDbSymbolTableRecord
100
AcDbLinetypeTableRecord
  2
DASHDOTX2
 70
0
  3
Dash dot (2x) ____  .  ____  .  ____  .  ___
 72
65
 73
4
 40
50.7999999999999972
 49
25.3999999999999986
 74
0
 49
-12.6499999999999986
 74
0
 49
0.1
 74
0
 49
-12.6499999999999986
 74
0
  0
LTYPE
  5
42
100
AcDbSymbolTableRecord
100
AcDbLinetypeTableRecord
  2
ACAD_ISO14W100
 70
0
  3
ISO dash triple-dot __ . . . __ . . . __ . . . _
 72
65
 73
8
 40
24.0000000000000036
 49
12.0
 74
0
 49
-2.9500000000000002
 74
0
 49
0.1
 74
0
 49
-2.9000000000000004
 74
0
 49
0.1
 74
0
 49
-2.9000000000000004
 74
0
 49
0.1
 74
0
 49
-2.9500000000000002
 74
0
  0
LTYPE
  5
43
100
AcDbSymbolTableRecord
100
AcDbLinetypeTableRecord
  2
DOT2
 70
0
  3
Dot (.5x) ........................................
 72
65
 73
2
 40
3.1749999999999998
 49
0.1
 74
0
 49
-3.0749999999999997
 74
0
  0
LTYPE
  5
44
100
AcDbSymbolTableRecord
100
AcDbLinetypeTableRecord
  2
BORDERX2
 70
0
  3
Border (2x) ____  ____  .  ____  ____  .  ___
 72
65
 73
6
 40
88.8999999999999773
 49
25.3999999999999986
 74
0
 49
-12.6999999999999993
 74
0
 49
25.3999999999999986
 74
0
 49
-12.6499999999999986
 74
0
 49
0.1
 74
0
 49
-12.6499999999999986
 74
0
  0
LTYPE
  5
45
100
AcDbSymbolTableRecord
100
AcDbLinetypeTableRecord
  2
PHANTOM
 70
0
  3
Phantom ______  __  __  ______  __  __  ______ 
 72
65
 73
6
 40
63.5000000000000071
 49
31.75
 74
0
 49
-6.3499999999999996
 74
0
 49
6.3499999999999996
 74
0
 49
-6.3499999999999996
 74
0
 49
6.3499999999999996
 74
0
 49
-6.3499999999999996
 74
0
  0
LTYPE
  5
46
100
AcDbSymbolTableRecord
100
AcDbLinetypeTableRecord
  2
PHANTOMX2
 70
0
  3
Phantom (2x) ____________    ____    ____   _
 72
65
 73
6
 40
127.0000000000000142
 49
63.5
 74
0
 49
-12.6999999999999993
 74
0
 49
12.6999999999999993
 74
0
 49
-12.6999999999999993
 74
0
 49
12.6999999999999993
 74
0
 49
-12.6999999999999993
 74
0
  0
LTYPE
  5
47
100
AcDbSymbolTableRecord
100
AcDbLinetypeTableRecord
  2
DIVIDEX2
 70
0
  3
Divide (2x) ________  .  .  ________  .  .  _
 72
65
 73
6
 40
63.5
 49
25.3999999999999986
 74
0
 49
-12.6499999999999986
 74
0
 49
0.1
 74
0
 49
-12.5999999999999979
 74
0
 49
0.1
 74
0
 49
-12.6499999999999986
 74
0
  0
LTYPE
  5
48
100
AcDbSymbolTableRecord
100
AcDbLinetypeTableRecord
  2
DASHED2
 70
0
  3
Dashed (.5x) _ _ _ _ _ _ _ _ _ _ _ _ _ _ _ _ _ 
 72
65
 73
2
 40
9.5249999999999986
 49
6.3499999999999996
 74
0
 49
-3.1749999999999998
 74
0
  0
LTYPE
  5
49
100
AcDbSymbolTableRecord
100
AcDbLinetypeTableRecord
  2
ACAD_ISO12W100
 70
0
  3
ISO dash double-dot __ . . __ . . __ . . __ . . 
 72
65
 73
6
 40
21.0
 49
12.0
 74
0
 49
-2.9500000000000002
 74
0
 49
0.1
 74
0
 49
-2.9000000000000004
 74
0
 49
0.1
 74
0
 49
-2.9500000000000002
 74
0
  0
LTYPE
  5
4A
100
AcDbSymbolTableRecord
100
AcDbLinetypeTableRecord
  2
PHANTOM2
 70
0
  3
Phantom (.5x) ___ _ _ ___ _ _ ___ _ _ ___ _ _
 72
65
 73
6
 40
31.7500000000000036
 49
15.875
 74
0
 49
-3.1749999999999998
 74
0
 49
3.1749999999999998
 74
0
 49
-3.1749999999999998
 74
0
 49
3.1749999999999998
 74
0
 49
-3.1749999999999998
 74
0
  0
LTYPE
  5
4B
100
AcDbSymbolTableRecord
100
AcDbLinetypeTableRecord
  2
HOT_WATER_SUPPLY
 70
0
  3
Hot water supply ---- HW ---- HW ---- HW ----
 72
65
 73
2
 40
17.7800000000000011
 49
12.6999999999999993
 74
0
 49
-5.0800000000000001
 74
0
  0
LTYPE
  5
4C
100
AcDbSymbolTableRecord
100
AcDbLinetypeTableRecord
  2
ACAD_ISO13W100
 70
0
  3
ISO double-dash double-dot __ __ . . __ __ . . _
 72
65
 73
8
 40
36.0000000000000071
 49
12.0
 74
0
 49
-3.0
 74
0
 49
12.0
 74
0
 49
-2.9500000000000002
 74
0
 49
0.1
 74
0
 49
-2.9000000000000004
 74
0
 49
0.1
 74
0
 49
-2.9500000000000002
 74
0
  0
LTYPE
  5
4D
100
AcDbSymbolTableRecord
100
AcDbLinetypeTableRecord
  2
BATTING
 70
0
  3
Batting SSSSSSSSSSSSSSSSSSSSSSSSSSSSSSSSSSSSSSSSSSSSSSS
 72
65
 73
2
 40
2.5425400000000002
 49
0.00254
 74
0
 49
-2.54
 74
0
  0
LTYPE
  5
4E
100
AcDbSymbolTableRecord
100
AcDbLinetypeTableRecord
  2
CUTLEFT
 70
0
  3
G41 ----\----\----\----
 72
65
 73
1
 40
5.0800000000000001
 49
5.0800000000000001
 74
0
  0
LTYPE
  5
4F
100
AcDbSymbolTableRecord
100
AcDbLinetypeTableRecord
  2
DRAINAGE
 70
0
  3
Drainage ---->---->---->----
 72
65
 73
1
 40
5.0800000000000001
 49
5.0800000000000001
 74
0
  0
LTYPE
  5
50
100
AcDbSymbolTableRecord
100
AcDbLinetypeTableRecord
  2
CUTRIGHT
 70
0
  3
G42 ----/----/-----/---
 72
65
 73
1
 40
5.0800000000000001
 49
5.0800000000000001
 74
0
  0
LTYPE
  5
51
100
AcDbSymbolTableRecord
100
AcDbLinetypeTableRecord
  2
DASHEDX2
 70
0
  3
Dashed (2x) ____  ____  ____  ____  ____  ___
 72
65
 73
2
 40
38.0999999999999943
 49
25.3999999999999986
 74
0
 49
-12.6999999999999993
 74
0
  0
LTYPE
  5
52
100
AcDbSymbolTableRecord
100
AcDbLinetypeTableRecord
  2
FENCELINE2
 70
0
  3
Fenceline square ----[]-----[]----[]-----[]----[]---
 72
65
 73
2
 40
8.8900000000000006
 49
6.3499999999999996
 74
0
 49
-2.54
 74
0
  0
LTYPE
  5
53
100
AcDbSymbolTableRecord
100
AcDbLinetypeTableRecord
  2
ACAD_ISO05W100
 70
0
  3
ISO long-dash double-dot ____ .. ____ .. ____ . 
 72
65
 73
6
 40
33.0000000000000071
 49
24.0
 74
0
 49
-2.9500000000000002
 74
0
 49
0.1
 74
0
 49
-2.9000000000000004
 74
0
 49
0.1
 74
0
 49
-2.9500000000000002
 74
0
  0
LTYPE
  5
54
100
AcDbSymbolTableRecord
100
AcDbLinetypeTableRecord
  2
BORDER
 70
0
  3
Border __ __ . __ __ . __ __ . __ __ . __ __ .
 72
65
 73
6
 40
44.4499999999999957
 49
12.6999999999999993
 74
0
 49
-6.3499999999999996
 74
0
 49
12.6999999999999993
 74
0
 49
-6.2999999999999998
 74
0
 49
0.1
 74
0
 49
-6.2999999999999998
 74
0
  0
LTYPE
  5
55
100
AcDbSymbolTableRecord
100
AcDbLinetypeTableRecord
  2
CUTRIGHT2
 70
0
  3
G42 reversed----\----\----\----
 72
65
 73
1
 40
5.0800000000000001
 49
5.0800000000000001
 74
0
  0
LTYPE
  5
56
100
AcDbSymbolTableRecord
100
AcDbLinetypeTableRecord
  2
DOTX2
 70
0
  3
Dot (2x) .  .  .  .  .  .  .  .  .  .  .  .  .  .
 72
65
 73
2
 40
12.6999999999999993
 49
0.1
 74
0
 49
-12.5999999999999996
 74
0
  0
LTYPE
  5
57
100
AcDbSymbolTableRecord
100
AcDbLinetypeTableRecord
  2
CUTLEFT2
 70
0
  3
G41 reversed----/----/----/----
 72
65
 73
1
 40
5.0800000000000001
 49
5.0800000000000001
 74
0
  0
LTYPE
  5
58
100
AcDbSymbolTableRecord
100
AcDbLinetypeTableRecord
  2
ACAD_ISO03W100
 70
0
  3
ISO dash space __    __    __    __    __    __
 72
65
 73
2
 40
30.0
 49
12.0
 74
0
 49
-18.0
 74
0
  0
LTYPE
  5
59
100
AcDbSymbolTableRecord
100
AcDbLinetypeTableRecord
  2
CENTER2
 70
0
  3
Center (.5x) ___ _ ___ _ ___ _ ___ _ ___ _ ___
 72
65
 73
4
 40
28.5750000000000028
 49
19.0500000000000007
 74
0
 49
-3.1749999999999998
 74
0
 49
3.1749999999999998
 74
0
 49
-3.1749999999999998
 74
0
  0
LTYPE
  5
5A
100
AcDbSymbolTableRecord
100
AcDbLinetypeTableRecord
  2
DOT
 70
0
  3
Dot . . . . . . . . . . . . . . . . . . . . . . . .
 72
65
 73
2
 40
6.3499999999999996
 49
0.1
 74
0
 49
-6.25
 74
0
  0
LTYPE
  5
5B
100
AcDbSymbolTableRecord
100
AcDbLinetypeTableRecord
  2
BORDER2
 70
0
  3
Border (.5x) __.__.__.__.__.__.__.__.__.__.__.
 72
65
 73
6
 40
22.2250000000000014
 49
6.3499999999999996
 74
0
 49
-3.1749999999999998
 74
0
 49
6.3499999999999996
 74
0
 49
-3.125
 74
0
 49
0.1
 74
0
 49
-3.125
 74
0
  0
LTYPE
  5
5C
100
AcDbSymbolTableRecord
100
AcDbLinetypeTableRecord
  2
ACAD_ISO10W100
 70
0
  3
ISO dash dot __ . __ . __ . __ . __ . __ . __ . 
 72
65
 73
4
 40
18.0
 49
12.0
 74
0
 49
-2.9500000000000002
 74
0
 49
0.1
 74
0
 49
-2.9500000000000002
 74
0
  0
LTYPE
  5
5D
100
AcDbSymbolTableRecord
100
AcDbLinetypeTableRecord
  2
DIVIDE2
 70
0
  3
Divide (.5x) __..__..__..__..__..__..__..__.._
 72
65
 73
6
 40
15.8749999999999982
 49
6.3499999999999996
 74
0
 49
-3.125
 74
0
 49
0.1
 74
0
 49
-3.0750000000000002
 74
0
 49
0.1
 74
0
 49
-3.125
 74
0
  0
LTYPE
  5
14
100
AcDbSymbolTableRecord
100
AcDbLinetypeTableRecord
  2
ByBlock
 70
0
  3

 72
65
 73
0
 40
0.0
  0
LTYPE
  5
5E
100
AcDbSymbolTableRecord
100
AcDbLinetypeTableRecord
  2
ACAD_ISO07W100
 70
0
  3
ISO dot . . . . . . . . . . . . . . . . . . . . 
 72
65
 73
2
 40
3.0
 49
0.1
 74
0
 49
-2.8999999999999999
 74
0
  0
LTYPE
  5
5F
100
AcDbSymbolTableRecord
100
AcDbLinetypeTableRecord
  2
HIDDENX2
 70
0
  3
Hidden (2x) ____ ____ ____ ____ ____ ____ ____ 
 72
65
 73
2
 40
19.0499999999999972
 49
12.6999999999999993
 74
0
 49
-6.3499999999999996
 74
0
  0
LTYPE
  5
60
100
AcDbSymbolTableRecord
100
AcDbLinetypeTableRecord
  2
ACAD_ISO04W100
 70
0
  3
ISO long-dash dot ____ . ____ . ____ . ____ . _
 72
65
 73
4
 40
30.0
 49
24.0
 74
0
 49
-2.9500000000000002
 74
0
 49
0.1
 74
0
 49
-2.9500000000000002
 74
0
  0
LTYPE
  5
61
100
AcDbSymbolTableRecord
100
AcDbLinetypeTableRecord
  2
DASHDOT
 70
0
  3
Dash dot __ . __ . __ . __ . __ . __ . __ . __
 72
65
 73
4
 40
25.4000000000000021
 49
12.6999999999999993
 74
0
 49
-6.2999999999999998
 74
0
 49
0.1
 74
0
 49
-6.2999999999999998
 74
0
  0
LTYPE
  5
62
100
AcDbSymbolTableRecord
100
AcDbLinetypeTableRecord
  2
ACAD_ISO11W100
 70
0
  3
ISO double-dash dot __ __ . __ __ . __ __ . __ _
 72
65
 73
6
 40
33.0
 49
12.0
 74
0
 49
-3.0
 74
0
 49
12.0
 74
0
 49
-2.9500000000000002
 74
0
 49
0.1
 74
0
 49
-2.9500000000000002
 74
0
  0
LTYPE
  5
63
100
AcDbSymbolTableRecord
100
AcDbLinetypeTableRecord
  2
ZIGZAG
 70
0
  3
Zig zag /\/\/\/\/\/\/\/\/\/\/\/\/\/\/\/\/\/\/\/\/\/\/\/
 72
65
 73
2
 40
5.0825399999999998
 49
0.00254
 74
0
 49
-5.0800000000000001
 74
0
  0
ENDTAB
  0
TABLE
  2
LAYER
  5
2
100
AcDbSymbolTable
 70
6
  0
LAYER
  5
10
100
AcDbSymbolTableRecord
100
AcDbLayerTableRecord
  2
0
 70
0
 62
7
420
0
  6
Continuous
370
25
390
F
  0
LAYER
  5
64
100
AcDbSymbolTableRecord
100
AcDbLayerTableRecord
  2
Defpoints
 70
0
 62
7
420
16777215
  6
Continuous
290
0
370
-3
390
F
  0
LAYER
  5
65
100
AcDbSymbolTableRecord
100
AcDbLayerTableRecord
  2
transport
 70
1
 62
94
420
32768
  6
Continuous
370
25
390
F
  0
LAYER
  5
66
100
AcDbSymbolTableRecord
100
AcDbLayerTableRecord
  2
quote
 70
0
 62
5
420
255
  6
Continuous
370
25
390
F
  0
LAYER
  5
67
100
AcDbSymbolTableRecord
100
AcDbLayerTableRecord
  2
base
 70
0
 62
7
420
0
  6
Continuous
370
25
390
F
  0
LAYER
  5
68
100
AcDbSymbolTableRecord
100
AcDbLayerTableRecord
  2
isometric
 70
0
 62
30
420
16744192
  6
Continuous
370
25
390
F
  0
ENDTAB
  0
TABLE
  2
STYLE
  5
3
100
AcDbSymbolTable
 70
1
  0
STYLE
  5
69
100
AcDbSymbolTableRecord
100
AcDbTextStyleTableRecord
  2
Standard
 70
0
 40
0.0
 41
1.0
 50
0.0
 71
0
 42
2.5
  3

  4

1001
ACAD
1000
txt
1071
0
  0
ENDTAB
  0
TABLE
  2
VIEW
  5
6
100
AcDbSymbolTable
 70
0
  0
ENDTAB
  0
TABLE
  2
UCS
  5
7
100
AcDbSymbolTable
 70
0
  0
ENDTAB
  0
TABLE
  2
APPID
  5
9
100
AcDbSymbolTable
 70
1
  0
APPID
  5
12
100
AcDbSymbolTableRecord
100
AcDbRegAppTableRecord
  2
ACAD
 70
0
  0
APPID
  5
6A
100
AcDbSymbolTableRecord
100
AcDbRegAppTableRecord
  2
QCAD
 70
0
  0
ENDTAB
  0
TABLE
  2
DIMSTYLE
  5
A
100
AcDbSymbolTable
 70
1
100
AcDbDimStyleTable
 71
0
  0
DIMSTYLE
105
27
100
AcDbSymbolTableRecord
100
AcDbDimStyleTableRecord
  2
Standard
 41
2.5
 42
0.625
 43
3.75
 44
1.25
 70
0
 73
0
 74
0
 77
1
 78
8
140
2.5
141
2.5
143
0.03937007874016
147
0.625
171
3
172
1
271
2
272
2
274
3
278
44
283
0
284
8
340
69
  0
ENDTAB
  0
TABLE
  2
BLOCK_RECORD
  5
1
100
AcDbSymbolTable
 70
1
  0
BLOCK_RECORD
  5
1F
100
AcDbSymbolTableRecord
100
AcDbBlockTableRecord
  2
*Model_Space
340
22
  0
BLOCK_RECORD
  5
1B
100
AcDbSymbolTableRecord
100
AcDbBlockTableRecord
  2
*Paper_Space
340
1E
  0
BLOCK_RECORD
  5
23
100
AcDbSymbolTableRecord
100
AcDbBlockTableRecord
  2
*Paper_Space0
340
26
  0
ENDTAB
  0
ENDSEC
  0
SECTION
  2
BLOCKS
  0
BLOCK
  5
20
100
AcDbEntity
  8
0
100
AcDbBlockBegin
  2
*Model_Space
 70
0
 10
0.0
 20
0.0
 30
0.0
  3
*Model_Space
  1

  0
ENDBLK
  5
21
100
AcDbEntity
  8
0
100
AcDbBlockEnd
  0
BLOCK
  5
1C
100
AcDbEntity
 67
1
  8
0
100
AcDbBlockBegin
  2
*Paper_Space
 70
0
 10
0.0
 20
0.0
 30
0.0
  3
*Paper_Space
  1

  0
ENDBLK
  5
1D
100
AcDbEntity
 67
1
  8
0
100
AcDbBlockEnd
  0
BLOCK
  5
24
100
AcDbEntity
  8
0
100
AcDbBlockBegin
  2
*Paper_Space0
 70
0
 10
0.0
 20
0.0
 30
0.0
  3
*Paper_Space0
  1

  0
ENDBLK
  5
25
100
AcDbEntity
  8
0
100
AcDbBlockEnd
  0
ENDSEC
  0
SECTION
  2
ENTITIES
  0
LINE
  5
6B
100
AcDbEntity
  8
0
 62
256
370
-1
 48
1.0
  6
ByLayer
100
AcDbLine
 10
85.6015628143345566
 20
123.0030388056503057
 30
0.0
 11
296.5231653479412444
 21
123.0030388056503057
 31
0.0
  0
LINE
  5
6C
100
AcDbEntity
  8
isometric
 62
256
370
-1
 48
1.0
  6
ByLayer
100
AcDbLine
 10
453.3599317513927076
 20
329.2036800290781002
 30
0.0
 11
602.4998359802656296
 21
243.0977161756233329
 31
0.0
  0
LINE
  5
6D
100
AcDbEntity
  8
isometric
 62
256
370
-1
 48
1.0
  6
ACAD_ISO07W100
100
AcDbLine
 10
693.7694812177041968
 20
296.544734593752878
 30
0.0
 11
544.6295769888313316
 21
382.6506984472076169
 31
0.0
  0
LINE
  5
6E
100
AcDbEntity
  8
0
 62
256
370
-1
 48
1.0
  6
ByLayer
100
AcDbLine
 10
65.6015628143345566
 20
143.0030388056503057
 30
0.0
 11
84.6015628143345566
 21
143.0030388056503057
 31
0.0
  0
LINE
  5
6F
100
AcDbEntity
  8
0
 62
256
370
-1
 48
1.0
  6
ByLayer
100
AcDbLine
 10
295.6015628143345566
 20
143.0030388056503057
 30
0.0
 11
315.6015628143345566
 21
143.0030388056503057
 31
0.0
  0
LINE
  5
70
100
AcDbEntity
  8
isometric
 62
256
370
-1
 48
1.0
  6
ByLayer
100
AcDbLine
 10
601.8481828923497687
 20
259.8034209790123441
 30
0.0
 11
615.9899210962503275
 21
251.638684620181067
 31
0.0
  0
LINE
  5
71
100
AcDbEntity
  8
isometric
 62
256
370
-1
 48
1.0
  6
ByLayer
100
AcDbLine
 10
545.2812300767471925
 20
398.6039390791436858
 30
0.0
 11
531.13949187284652
 21
406.7686754379749345
 31
0.0
  0
ARC
  5
72
100
AcDbEntity
  8
0
 62
256
370
-1
 48
1.0
  6
ByLayer
100
AcDbCircle
 10
85.6015628143345566
 20
143.0030388056503057
 30
0.0
 40
20.0
100
AcDbArc
 50
180.0
 51
270.0
  0
ELLIPSE
  5
73
100
AcDbEntity
  8
isometric
 62
256
370
-1
 48
1.0
  6
ByLayer
100
AcDbEllipse
 10
453.3599317513927645
 20
345.5331527467405976
 30
0.0
 11
-9.9997189817429923
 21
17.3200213377898429
 31
0.0
 40
0.5773502691896258
 41
0.7853981633974526
 42
2.3561944901923426
  0
ELLIPSE
  5
74
100
AcDbEntity
  8
isometric
 62
256
370
-1
 48
1.0
  6
ByLayer
100
AcDbEllipse
 10
693.7694812177041968
 20
312.8742073114154323
 30
0.0
 11
-9.999718981743035
 21
17.3200213377898464
 31
0.0
 40
0.5773502691896257
 41
2.3561944901923471
 42
3.926990816987241
  0
ARC
  5
75
100
AcDbEntity
  8
0
 62
256
370
-1
 48
1.0
  6
ByLayer
100
AcDbCircle
 10
295.6015628143345566
 20
143.0030388056503057
 30
0.0
 40
20.0
100
AcDbArc
 50
270.0
 51
0.0
  0
ELLIPSE
  5
76
100
AcDbEntity
  8
isometric
 62
256
370
-1
 48
1.0
  6
ByLayer
100
AcDbEllipse
 10
601.8481828923497687
 20
259.8034209790123441
 30
0.0
 11
-9.9997189817430137
 21
17.3200213377898464
 31
0.0
 40
0.5773502691896256
 41
2.3561944901923426
 42
3.9269908169872418
  0
ELLIPSE
  5
77
100
AcDbEntity
  8
isometric
 62
256
370
-1
 48
1.0
  6
ACAD_ISO07W100
100
AcDbEllipse
 10
545.2812300767471925
 20
398.6039390791436858
 30
0.0
 11
-9.9997189817430279
 21
17.3200213377898322
 31
0.0
 40
0.5773502691896258
 41
0.7853981633974485
 42
2.3561944901923444
  0
ARC
  5
78
100
AcDbEntity
  8
0
 62
256
370
-1
 48
1.0
  6
ByLayer
100
AcDbCircle
 10
85.6015628143345566
 20
143.0030388056503057
 30
0.0
 40
18.0
100
AcDbArc
 50
186.3793702084427935
 51
270.0
  0
ELLIPSE
  5
79
100
AcDbEntity
  8
isometric
 62
256
370
-1
 48
1.0
  6
ByLayer
100
AcDbEllipse
 10
453.3599317513927076
 20
345.5331527467405976
 30
0.0
 11
-8.9997470835686979
 21
15.5880192040108643
 31
0.0
 40
0.5773502691896256
 41
0.8967391777384146
 42
2.3561944901923466
  0
ELLIPSE
  5
7A
100
AcDbEntity
  8
isometric
 62
256
370
-1
 48
1.0
  6
ACAD_ISO07W100
100
AcDbEllipse
 10
693.7694812177041968
 20
312.8742073114153754
 30
0.0
 11
-8.9997470835687157
 21
15.588019204010866
 31
0.0
 40
0.5773502691896256
 41
2.3561944901923453
 42
3.8156498026462775
  0
LINE
  5
7B
100
AcDbEntity
  8
0
 62
256
370
-1
 48
1.0
  6
ByLayer
100
AcDbLine
 10
85.6015628143345566
 20
125.0030388056503057
 30
0.0
 11
296.5231653479412444
 21
125.0030388056503057
 31
0.0
  0
LINE
  5
7C
100
AcDbEntity
  8
isometric
 62
256
370
-1
 48
1.0
  6
ByLayer
100
AcDbLine
 10
453.3599317513927076
 20
330.8366273008442704
 30
0.0
 11
602.4998359802656296
 21
244.7306634473895883
 31
0.0
  0
LINE
  5
7D
100
AcDbEntity
  8
isometric
 62
256
370
-1
 48
1.0
  6
ACAD_ISO07W100
100
AcDbLine
 10
693.7694812177041968
 20
298.177681865519105
 30
0.0
 11
681.0419168341935574
 21
305.5259445884673255
 31
0.0
  0
LINE
  5
7E
100
AcDbEntity
  8
isometric
 62
256
370
-1
 48
1.0
  6
ByLayer
100
AcDbLine
 10
681.0419168341935574
 20
305.5259445884673255
 30
0.0
 11
544.6295769888313316
 21
384.2836457189739008
 31
0.0
  0
ARC
  5
7F
100
AcDbEntity
  8
0
 62
256
370
-1
 48
1.0
  6
ByLayer
100
AcDbCircle
 10
295.6015628143345566
 20
143.0030388056503057
 30
0.0
 40
18.0
100
AcDbArc
 50
270.0
 51
353.6206297915571781
  0
ELLIPSE
  5
80
100
AcDbEntity
  8
isometric
 62
256
370
-1
 48
1.0
  6
ByLayer
100
AcDbEllipse
 10
601.8481828923497687
 20
259.8034209790123441
 30
0.0
 11
-8.9997470835687157
 21
15.588019204010866
 31
0.0
 40
0.5773502691896256
 41
2.3561944901923462
 42
3.8156498026462784
  0
ELLIPSE
  5
81
100
AcDbEntity
  8
isometric
 62
256
370
-1
 48
1.0
  6
ACAD_ISO07W100
100
AcDbEllipse
 10
545.2812300767471925
 20
398.6039390791436858
 30
0.0
 11
-8.9997470835687263
 21
15.5880192040108518
 31
0.0
 40
0.577350269189626
 41
0.8967391777384127
 42
1.6494448029640254
  0
ELLIPSE
  5
82
100
AcDbEntity
  8
isometric
 62
256
370
-1
 48
1.0
  6
ByLayer
100
AcDbEllipse
 10
545.2812300767471925
 20
398.6039390791436858
 30
0.0
 11
-8.9997470835687263
 21
15.5880192040108518
 31
0.0
 40
0.577350269189626
 41
1.6494448029640254
 42
2.3561944901923444
  0
LINE
  5
83
100
AcDbEntity
  8
0
 62
256
370
-1
 48
1.0
  6
ByLayer
100
AcDbLine
 10
65.6015628143345566
 20
141.0030388056503057
 30
0.0
 11
65.7018140722021542
 21
141.0030388056503057
 31
0.0
  0
LINE
  5
84
100
AcDbEntity
  8
isometric
 62
256
370
-1
 48
1.0
  6
ByLayer
100
AcDbLine
 10
439.218193547492092
 20
352.0649418338056194
 30
0.0
 11
439.2890798996608055
 21
352.024015579299089
 31
0.0
  0
LINE
  5
85
100
AcDbEntity
  8
isometric
 62
256
370
-1
 48
1.0
  6
ByLayer
100
AcDbLine
 10
707.9112194216048692
 20
303.0765236808178997
 30
0.0
 11
707.840333069436042
 21
303.11744993532443
 31
0.0
  0
LINE
  5
86
100
AcDbEntity
  8
0
 62
256
370
-1
 48
1.0
  6
ByLayer
100
AcDbLine
 10
295.6015628143345566
 20
141.0030388056503057
 30
0.0
 11
313.4901066343328466
 21
141.0030388056503057
 31
0.0
  0
LINE
  5
87
100
AcDbEntity
  8
isometric
 62
256
370
-1
 48
1.0
  6
ByLayer
100
AcDbLine
 10
601.8481828923497687
 20
258.1704737072460603
 30
0.0
 11
614.4969380699208159
 21
250.8677115005617679
 31
0.0
  0
LINE
  5
88
100
AcDbEntity
  8
0
 62
256
370
-1
 48
1.0
  6
ByLayer
100
AcDbLine
 10
315.5013115564669306
 20
141.0030388056503057
 30
0.0
 11
315.6015628143345566
 21
141.0030388056503057
 31
0.0
  0
LINE
  5
89
100
AcDbEntity
  8
isometric
 62
256
370
-1
 48
1.0
  6
ByLayer
100
AcDbLine
 10
615.919034744081614
 20
250.0466636029213419
 30
0.0
 11
615.9899210962503275
 21
250.0057373484148115
 31
0.0
  0
LINE
  5
8A
100
AcDbEntity
  8
0
 62
256
370
-1
 48
1.0
  6
ByLayer
100
AcDbLine
 10
295.6015628143345566
 20
141.0030388056503057
 30
0.0
 11
295.6015628143345566
 21
143.0030388056503057
 31
0.0
  0
DIMENSION
  5
8B
100
AcDbEntity
  8
quote
 62
256
370
-1
 48
1.0
  6
ByLayer
100
AcDbDimension
 10
65.6015628143345566
 20
172.0030388056503057
 30
0.0
 11
190.6015628143345566
 21
173.8780388056503057
 31
0.0
 70
1
 71
8
 72
1
 74
0
 75
0
 41
1.0
 42
0.0
  1

  3
Standard
100
AcDbAlignedDimension
 13
65.6015628143345566
 23
143.0030388056503057
 33
0.0
 14
315.6015628143345566
 24
143.0030388056503057
 34
0.0
1001
ACAD
1000
DSTYLE
1002
{
1070
144
1040
1.0
1070
40
1040
1.0
1002
}
  0
DIMENSION
  5
8C
100
AcDbEntity
  8
quote
 62
256
370
-1
 48
1.0
  6
ByLayer
100
AcDbDimension
 10
315.6015628143345566
 20
152.0030388056503057
 30
0.0
 11
305.6015628143345566
 21
153.8780388056502773
 31
0.0
 70
1
 71
8
 72
1
 74
0
 75
0
 41
1.0
 42
0.0
  1

  3
Standard
100
AcDbAlignedDimension
 13
315.6015628143345566
 23
143.0030388056503057
 33
0.0
 14
295.6015628143345566
 24
143.0030388056502488
 34
0.0
1001
ACAD
1000
DSTYLE
1002
{
1070
144
1040
1.0
1070
40
1040
1.0
1002
}
  0
DIMENSION
  5
8D
100
AcDbEntity
  8
quote
 62
256
370
-1
 48
1.0
  6
ByLayer
100
AcDbDimension
 10
65.6015628143345566
 20
163.0030388056503057
 30
0.0
 11
75.6015628143345566
 21
164.8780388056503057
 31
0.0
 70
1
 71
8
 72
2
 74
0
 75
0
 41
1.0
 42
0.0
  1

  3
Standard
100
AcDbAlignedDimension
 13
65.6015628143345566
 23
143.0030388056503057
 33
0.0
 14
85.6015628143345566
 24
143.0030388056503057
 34
0.0
1001
ACAD
1000
DSTYLE
1002
{
1070
144
1040
1.0
1070
40
1040
1.0
1002
}
  0
LINE
  5
8E
100
AcDbEntity
  8
0
 62
256
370
-1
 48
1.0
  6
ByLayer
100
AcDbLine
 10
67.7130189943362382
 20
141.0030388056503057
 30
0.0
 11
85.6015628143345566
 21
141.0030388056503057
 31
0.0
  0
LINE
  5
8F
100
AcDbEntity
  8
isometric
 62
256
370
-1
 48
1.0
  6
ByLayer
100
AcDbLine
 10
440.7111765738216604
 20
351.202967681658663
 30
0.0
 11
453.3599317513927076
 21
343.9002054749743138
 31
0.0
  0
LINE
  5
90
100
AcDbEntity
  8
isometric
 62
256
370
-1
 48
1.0
  6
ACAD_ISO07W100
100
AcDbLine
 10
706.4182363952752439
 20
303.9384978329647993
 30
0.0
 11
693.7694812177041968
 21
311.2412600396491484
 31
0.0
  0
LINE
  5
91
100
AcDbEntity
  8
0
 62
256
370
-1
 48
1.0
  6
ByLayer
100
AcDbLine
 10
85.6015628143345566
 20
141.0030388056503057
 30
0.0
 11
85.6015628143345566
 21
143.0030388056503057
 31
0.0
  0
DIMENSION
  5
92
100
AcDbEntity
  8
quote
 62
256
370
-1
 48
1.0
  6
ByLayer
100
AcDbDimension
 10
61.4585304038520093
 20
143.0030388056503057
 30
0.0
 11
59.5835304038520093
 21
133.0030388056503057
 31
0.0
 70
0
 71
8
 72
2
 74
0
 75
0
 41
1.0
 42
0.0
  1

  3
Standard
100
AcDbAlignedDimension
 13
65.6015628143345566
 23
143.0030388056503057
 33
0.0
 14
85.6015628143345566
 24
123.0030388056503057
 34
0.0
 50
90.0
100
AcDbRotatedDimension
1001
ACAD
1000
DSTYLE
1002
{
1070
144
1040
1.0
1070
40
1040
1.0
1002
}
  0
DIMENSION
  5
93
100
AcDbEntity
  8
quote
 62
256
370
-1
 48
1.0
  6
ByLayer
100
AcDbDimension
 10
93.6015628143345566
 20
143.0030388056503057
 30
0.0
 11
91.7265628143345566
 21
142.0030388056503057
 31
0.0
 70
1
 71
8
 72
2
 74
0
 75
0
 41
1.0
 42
0.0
  1

  3
Standard
100
AcDbAlignedDimension
 13
85.6015628143345566
 23
143.0030388056503057
 33
0.0
 14
85.6015628143345566
 24
141.0030388056503057
 34
0.0
1001
ACAD
1000
DSTYLE
1002
{
1070
144
1040
1.0
1070
40
1040
1.0
1002
}
  0
LINE
  5
94
100
AcDbEntity
  8
transport
 62
256
370
-1
 48
1.0
  6
ByLayer
100
AcDbLine
 10
258.0
 20
31.0
 30
0.0
 11
295.0
 21
31.0
 31
0.0
  0
LINE
  5
95
100
AcDbEntity
  8
transport
 62
256
370
-1
 48
1.0
  6
ByLayer
100
AcDbLine
 10
258.0
 20
11.0
 30
0.0
 11
295.0
 21
11.0
 31
0.0
  0
LINE
  5
96
100
AcDbEntity
  8
transport
 62
256
370
-1
 48
1.0
  6
ByLayer
100
AcDbLine
 10
258.0
 20
11.0
 30
0.0
 11
295.0
 21
11.0
 31
0.0
  0
LINE
  5
97
100
AcDbEntity
  8
transport
 62
256
370
-1
 48
1.0
  6
ByLayer
100
AcDbLine
 10
258.0
 20
11.0
 30
0.0
 11
238.9216025336066878
 21
11.0
 31
0.0
  0
LINE
  5
98
100
AcDbEntity
  8
0
 62
256
370
-1
 48
1.0
  6
ByLayer
100
AcDbLine
 10
352.6015628143345566
 20
143.0030388056503057
 30
0.0
 11
482.6015628143345566
 21
143.0030388056503057
 31
0.0
  0
LINE
  5
99
100
AcDbEntity
  8
0
 62
256
370
-1
 48
1.0
  6
ByLayer
100
AcDbLine
 10
352.6015628143345566
 20
123.0030388056503057
 30
0.0
 11
482.6015628143345566
 21
123.0030388056503057
 31
0.0
  0
LINE
  5
9A
100
AcDbEntity
  8
0
 62
256
370
-1
 48
1.0
  6
ByLayer
100
AcDbLine
 10
352.6015628143345566
 20
123.0030388056503057
 30
0.0
 11
352.6015628143345566
 21
143.0030388056503057
 31
0.0
  0
LINE
  5
9B
100
AcDbEntity
  8
0
 62
256
370
-1
 48
1.0
  6
ByLayer
100
AcDbLine
 10
482.6015628143345566
 20
123.0030388056503057
 30
0.0
 11
482.6015628143345566
 21
143.0030388056503057
 31
0.0
  0
LINE
  5
9C
100
AcDbEntity
  8
0
 62
256
370
-1
 48
1.0
  6
ByLayer
100
AcDbLine
 10
354.6015628143345566
 20
125.0030388056503057
 30
0.0
 11
480.6015628143345566
 21
125.0030388056503057
 31
0.0
  0
LINE
  5
9D
100
AcDbEntity
  8
0
 62
256
370
-1
 48
1.0
  6
ByLayer
100
AcDbLine
 10
354.6015628143345566
 20
141.0030388056503057
 30
0.0
 11
480.6015628143345566
 21
141.0030388056503057
 31
0.0
  0
DIMENSION
  5
9E
100
AcDbEntity
  8
quote
 62
256
370
-1
 48
1.0
  6
ByLayer
100
AcDbDimension
 10
352.6015628143345566
 20
170.4645509864344035
 30
0.0
 11
417.6015628143345566
 21
172.3395509864346877
 31
0.0
 70
1
 71
8
 72
2
 74
0
 75
0
 41
1.0
 42
0.0
  1

  3
Standard
100
AcDbAlignedDimension
 13
352.6015628143345566
 23
143.0030388056499646
 33
0.0
 14
482.6015628143345566
 24
143.0030388056505615
 34
0.0
1001
ACAD
1000
DSTYLE
1002
{
1070
144
1040
1.0
1070
40
1040
1.0
1002
}
  0
LINE
  5
9F
100
AcDbEntity
  8
transport
 62
256
370
-1
 48
1.0
  6
ByLayer
100
AcDbLine
 10
258.0
 20
31.0
 30
0.0
 11
258.0
 21
111.0
 31
0.0
  0
LINE
  5
A0
100
AcDbEntity
  8
transport
 62
256
370
-1
 48
1.0
  6
ByLayer
100
AcDbLine
 10
8.0
 20
31.0
 30
0.0
 11
8.0000000000000053
 21
111.0
 31
0.0
  0
LINE
  5
A1
100
AcDbEntity
  8
0
 62
256
370
-1
 48
1.0
  6
ByLayer
100
AcDbLine
 10
65.6015628143345566
 20
223.0030388056503057
 30
0.0
 11
315.6015628143345566
 21
223.0030388056503057
 31
0.0
  0
LINE
  5
A2
100
AcDbEntity
  8
0
 62
256
370
-1
 48
1.0
  6
ByLayer
100
AcDbLine
 10
65.6015628143345566
 20
223.0030388056503057
 30
0.0
 11
65.6015628143345708
 21
353.0030388056503057
 31
0.0
  0
LINE
  5
A3
100
AcDbEntity
  8
isometric
 62
256
370
-1
 48
1.0
  6
ByLayer
100
AcDbLine
 10
439.218193547492092
 20
353.6978891055717327
 30
0.0
 11
531.13949187284652
 21
406.7686754379749345
 31
0.0
  0
LINE
  5
A4
100
AcDbEntity
  8
0
 62
256
370
-1
 48
1.0
  6
ByLayer
100
AcDbLine
 10
315.6015628143345566
 20
223.0030388056503057
 30
0.0
 11
315.6015628143345566
 21
353.0030388056503057
 31
0.0
  0
LINE
  5
A5
100
AcDbEntity
  8
isometric
 62
256
370
-1
 48
1.0
  6
ByLayer
100
AcDbLine
 10
615.9899210962504412
 20
251.6386846201809533
 30
0.0
 11
707.9112194216047556
 21
304.7094709525841836
 31
0.0
  0
LINE
  5
A6
100
AcDbEntity
  8
0
 62
256
370
-1
 48
1.0
  6
ByLayer
100
AcDbLine
 10
65.6015628143345708
 20
353.0030388056503057
 30
0.0
 11
315.6015628143345566
 21
353.0030388056503057
 31
0.0
  0
DIMENSION
  5
A7
100
AcDbEntity
  8
quote
 62
256
370
-1
 48
1.0
  6
ByLayer
100
AcDbDimension
 10
342.2727097382716011
 20
353.0030388056502488
 30
0.0
 11
340.3977097382716011
 21
288.0030388056502488
 31
0.0
 70
1
 71
8
 72
2
 74
0
 75
0
 41
1.0
 42
0.0
  1

  3
Standard
100
AcDbAlignedDimension
 13
315.6015628143345566
 23
353.0030388056502488
 33
0.0
 14
315.6015628143345566
 24
223.0030388056503057
 34
0.0
1001
ACAD
1000
DSTYLE
1002
{
1070
144
1040
1.0
1070
40
1040
1.0
1002
}
  0
DIMENSION
  5
A8
100
AcDbEntity
  8
quote
 62
256
370
-1
 48
1.0
  6
ByLayer
100
AcDbDimension
 10
65.6015628143345992
 20
382.0030388056503057
 30
0.0
 11
190.601562814334585
 21
383.8780388056502488
 31
0.0
 70
1
 71
8
 72
2
 74
0
 75
0
 41
1.0
 42
0.0
  1

  3
Standard
100
AcDbAlignedDimension
 13
65.601562814334585
 23
353.0030388056503057
 33
0.0
 14
315.6015628143345566
 24
353.0030388056502488
 34
0.0
1001
ACAD
1000
DSTYLE
1002
{
1070
144
1040
1.0
1070
40
1040
1.0
1002
}
  0
LINE
  5
A9
100
AcDbEntity
  8
0
 62
256
370
-1
 48
1.0
  6
ByLayer
100
AcDbLine
 10
313.6015628143345566
 20
225.0030388056503057
 30
0.0
 11
313.6015628143345566
 21
351.0030388056503057
 31
0.0
  0
LINE
  5
AA
100
AcDbEntity
  8
0
 62
256
370
-1
 48
1.0
  6
ByLayer
100
AcDbLine
 10
67.6015628143345566
 20
225.0030388056503057
 30
0.0
 11
67.6015628143345708
 21
351.0030388056503057
 31
0.0
  0
LINE
  5
AB
100
AcDbEntity
  8
transport
 62
256
370
-1
 48
1.0
  6
ByLayer
100
AcDbLine
 10
27.9999999999999964
 20
31.0
 30
0.0
 11
28.0
 21
111.0
 31
0.0
  0
LINE
  5
AC
100
AcDbEntity
  8
transport
 62
256
370
-1
 48
1.0
  6
ByLayer
100
AcDbLine
 10
238.0
 20
31.0
 30
0.0
 11
238.0
 21
111.0
 31
0.0
  0
LINE
  5
AD
100
AcDbEntity
  8
0
 62
256
370
-1
 48
1.0
  6
ByLayer
100
AcDbLine
 10
85.6015628143345566
 20
223.0030388056503057
 30
0.0
 11
85.6015628143345566
 21
353.0030388056503057
 31
0.0
  0
LINE
  5
AE
100
AcDbEntity
  8
0
 62
256
370
-1
 48
1.0
  6
ByLayer
100
AcDbLine
 10
295.6015628143345566
 20
223.0030388056503057
 30
0.0
 11
295.6015628143345566
 21
353.0030388056503057
 31
0.0
  0
DIMENSION
  5
AF
100
AcDbEntity
  8
quote
 62
256
370
-1
 48
1.0
  6
ByLayer
100
AcDbDimension
 10
85.6015628143345424
 20
371.0030388056503057
 30
0.0
 11
75.6015628143345566
 21
372.8780388056503057
 31
0.0
 70
1
 71
8
 72
2
 74
0
 75
0
 41
1.0
 42
0.0
  1

  3
Standard
100
AcDbAlignedDimension
 13
85.6015628143345424
 23
353.0030388056503057
 33
0.0
 14
65.601562814334585
 24
353.0030388056503057
 34
0.0
1001
ACAD
1000
DSTYLE
1002
{
1070
144
1040
1.0
1070
40
1040
1.0
1002
}
  0
LINE
  5
B0
100
AcDbEntity
  8
isometric
 62
256
370
-1
 48
1.0
  6
ACAD_ISO07W100
100
AcDbLine
 10
693.7694812177040831
 20
296.5447345937528212
 30
0.0
 11
601.8481828923497687
 21
243.4739482613498183
 31
0.0
  0
LINE
  5
B1
100
AcDbEntity
  8
isometric
 62
256
370
-1
 48
1.0
  6
ByLayer
100
AcDbLine
 10
703.46864135383953
 20
295.3907895266634114
 30
0.0
 11
611.8483806465104635
 21
242.4836760870771002
 31
0.0
  0
LINE
  5
B2
100
AcDbEntity
  8
isometric
 62
256
370
-1
 48
1.0
  6
ACAD_ISO07W100
100
AcDbLine
 10
545.2812300767471925
 20
382.2744663614811884
 30
0.0
 11
453.3599317513927645
 21
329.2036800290781002
 31
0.0
  0
LINE
  5
B3
100
AcDbEntity
  8
isometric
 62
256
370
-1
 48
1.0
  6
ByLayer
100
AcDbLine
 10
601.8481828923497687
 20
245.1068955331160453
 30
0.0
 11
613.1615734554702613
 21
251.6386846201810101
 31
0.0
  0
LINE
  5
B4
100
AcDbEntity
  8
isometric
 62
256
370
-1
 48
1.0
  6
ACAD_ISO07W100
100
AcDbLine
 10
440.7111765738216604
 20
351.202967681658663
 30
0.0
 11
532.6324748991760316
 21
404.2737540140616943
 31
0.0
  0
LINE
  5
B5
100
AcDbEntity
  8
isometric
 62
256
370
-1
 48
1.0
  6
ACAD_ISO07W100
100
AcDbLine
 10
601.8481828923497687
 20
258.1704737072460603
 30
0.0
 11
693.7694812177041968
 21
311.2412600396490916
 31
0.0
  0
LINE
  5
B6
100
AcDbEntity
  8
isometric
 62
256
370
-1
 48
1.0
  6
ByLayer
100
AcDbLine
 10
453.3599317513927076
 20
330.8366273008443272
 30
0.0
 11
545.2812300767471925
 21
383.9074136332474154
 31
0.0
  0
LINE
  5
B7
100
AcDbEntity
  8
isometric
 62
256
370
-1
 48
1.0
  6
ByLayer
100
AcDbLine
 10
601.848182892349655
 20
258.1704737072460603
 30
0.0
 11
601.8481828923497687
 21
259.8034209790123441
 31
0.0
  0
LINE
  5
B8
100
AcDbEntity
  8
isometric
 62
256
370
-1
 48
1.0
  6
ByLayer
100
AcDbLine
 10
453.3599317513927076
 20
343.9002054749743138
 30
0.0
 11
453.3599317513927076
 21
345.5331527467405976
 31
0.0
  0
LINE
  5
B9
100
AcDbEntity
  8
isometric
 62
256
370
-1
 48
1.0
  6
ByLayer
100
AcDbLine
 10
453.3599317513927076
 20
345.5331527467405976
 30
0.0
 11
545.2812300767471925
 21
398.6039390791436858
 31
0.0
  0
LINE
  5
BA
100
AcDbEntity
  8
isometric
 62
256
370
-1
 48
1.0
  6
ByLayer
100
AcDbLine
 10
453.3599317513926508
 20
345.5331527467405976
 30
0.0
 11
439.2181935474921488
 21
353.6978891055717895
 31
0.0
  0
LINE
  5
BB
100
AcDbEntity
  8
isometric
 62
256
370
-1
 48
1.0
  6
ACAD_ISO07W100
100
AcDbLine
 10
532.6324748991760316
 20
404.2737540140616943
 30
0.0
 11
545.2812300767471925
 21
396.9709918073772883
 31
0.0
  0
LINE
  5
BC
100
AcDbEntity
  8
isometric
 62
256
370
-1
 48
1.0
  6
ByLayer
100
AcDbLine
 10
545.2812300767471925
 20
398.6039390791436858
 30
0.0
 11
545.2812300767471925
 21
396.970991807377402
 31
0.0
  0
LINE
  5
BD
100
AcDbEntity
  8
isometric
 62
256
370
-1
 48
1.0
  6
ByLayer
100
AcDbLine
 10
545.2812300767471925
 20
396.9709918073773451
 30
0.0
 11
453.3599317513926508
 21
343.9002054749743706
 31
0.0
  0
LINE
  5
BE
100
AcDbEntity
  8
isometric
 62
256
370
-1
 48
1.0
  6
ByLayer
100
AcDbLine
 10
693.7694812177040831
 20
312.8742073114154323
 30
0.0
 11
707.9112194216049829
 21
304.7094709525843541
 31
0.0
  0
LINE
  5
BF
100
AcDbEntity
  8
isometric
 62
256
370
-1
 48
1.0
  6
ACAD_ISO07W100
100
AcDbLine
 10
693.7694812177040831
 20
312.8742073114154323
 30
0.0
 11
693.7694812177041968
 21
311.2412600396491484
 31
0.0
  0
LINE
  5
C0
100
AcDbEntity
  8
isometric
 62
256
370
-1
 48
1.0
  6
ACAD_ISO07W100
100
AcDbLine
 10
613.1615734554703749
 20
251.6386846201810954
 30
0.0
 11
693.7694812177040831
 21
298.1776818655191619
 31
0.0
  0
LINE
  5
C1
100
AcDbEntity
  8
isometric
 62
256
370
-1
 48
1.0
  6
ByLayer
100
AcDbLine
 10
601.8481828923498824
 20
259.8034209790123441
 30
0.0
 11
693.7694812177039694
 21
312.8742073114154891
 31
0.0
  0
LINE
  5
C2
100
AcDbEntity
  8
0
 62
256
370
-1
 48
1.0
  6
ByLayer
100
AcDbLine
 10
693.7694812177039694
 20
225.0030388056503057
 30
0.0
 11
693.7694812177039694
 21
225.0030388056503057
 31
0.0
  0
LINE
  5
C3
100
AcDbEntity
  8
0
 62
256
370
-1
 48
1.0
  6
ByLayer
100
AcDbLine
 10
693.7694812177039694
 20
225.0030388056503057
 30
0.0
 11
693.7694812177039694
 21
223.4404458832670457
 31
0.0
  0
LINE
  5
C4
100
AcDbEntity
  8
0
 62
256
370
-1
 48
1.0
  6
ByLayer
100
AcDbLine
 10
693.7694812177039694
 20
223.4404458832670457
 30
0.0
 11
693.7694812177039694
 21
225.0030388056503057
 31
0.0
  0
LINE
  5
C5
100
AcDbEntity
  8
0
 62
256
370
-1
 48
1.0
  6
ByLayer
100
AcDbLine
 10
67.6015628143345566
 20
225.0030388056503057
 30
0.0
 11
67.6015628143345566
 21
223.0030388056503057
 31
0.0
  0
LINE
  5
C6
100
AcDbEntity
  8
0
 62
256
370
-1
 48
1.0
  6
ByLayer
100
AcDbLine
 10
67.6015628143345708
 20
351.0030388056503057
 30
0.0
 11
67.6015628143345708
 21
353.0030388056503057
 31
0.0
  0
DIMENSION
  5
C7
100
AcDbEntity
  8
quote
 62
256
370
-1
 48
1.0
  6
ByLayer
100
AcDbDimension
 10
67.6015628143345708
 20
359.5760819868212934
 30
0.0
 11
66.6015628143345708
 21
361.4510819868212934
 31
0.0
 70
1
 71
8
 72
2
 74
0
 75
0
 41
1.0
 42
0.0
  1

  3
Standard
100
AcDbAlignedDimension
 13
67.6015628143345708
 23
353.0030388056503057
 33
0.0
 14
65.6015628143345708
 24
353.0030388056503057
 34
0.0
1001
ACAD
1000
DSTYLE
1002
{
1070
144
1040
1.0
1070
40
1040
1.0
1002
}
  0
LINE
  5
C8
100
AcDbEntity
  8
0
 62
256
370
-1
 48
1.0
  6
ByLayer
100
AcDbLine
 10
313.6015628143345566
 20
351.0030388056503057
 30
0.0
 11
313.6015628143345566
 21
353.0030388056503057
 31
0.0
  0
LINE
  5
C9
100
AcDbEntity
  8
0
 62
256
370
-1
 48
1.0
  6
ByLayer
100
AcDbLine
 10
313.6015628143345566
 20
225.0030388056503057
 30
0.0
 11
313.6015628143345566
 21
223.0030388056503057
 31
0.0
  0
LINE
  5
CA
100
AcDbEntity
  8
0
 62
256
370
-1
 48
1.0
  6
ByLayer
100
AcDbLine
 10
354.6015628143345566
 20
141.0030388056503057
 30
0.0
 11
352.6015628143345566
 21
141.0030388056503057
 31
0.0
  0
LINE
  5
CB
100
AcDbEntity
  8
0
 62
256
370
-1
 48
1.0
  6
ByLayer
100
AcDbLine
 10
354.6015628143345566
 20
125.0030388056503057
 30
0.0
 11
352.6015628143345566
 21
125.0030388056503057
 31
0.0
  0
LINE
  5
CC
100
AcDbEntity
  8
0
 62
256
370
-1
 48
1.0
  6
ByLayer
100
AcDbLine
 10
480.6015628143345566
 20
141.0030388056503057
 30
0.0
 11
482.6015628143345566
 21
141.0030388056503057
 31
0.0
  0
LINE
  5
CD
100
AcDbEntity
  8
0
 62
256
370
-1
 48
1.0
  6
ByLayer
100
AcDbLine
 10
480.6015628143345566
 20
125.0030388056503057
 30
0.0
 11
482.6015628143345566
 21
125.0030388056503057
 31
0.0
  0
DIMENSION
  5
CE
100
AcDbEntity
  8
quote
 62
256
370
-1
 48
1.0
  6
ByLayer
100
AcDbDimension
 10
341.0
 20
143.0030388056503057
 30
0.0
 11
339.125
 21
133.0030388056503057
 31
0.0
 70
1
 71
8
 72
2
 74
0
 75
0
 41
1.0
 42
0.0
  1

  3
Standard
100
AcDbAlignedDimension
 13
352.6015628143345566
 23
143.0030388056503057
 33
0.0
 14
352.6015628143345566
 24
123.0030388056502915
 34
0.0
1001
ACAD
1000
DSTYLE
1002
{
1070
144
1040
1.0
1070
40
1040
1.0
1002
}
  0
DIMENSION
  5
CF
100
AcDbEntity
  8
quote
 62
256
370
-1
 48
1.0
  6
ByLayer
100
AcDbDimension
 10
350.0
 20
125.0030388056502915
 30
0.0
 11
348.125
 21
124.0030388056503057
 31
0.0
 70
1
 71
8
 72
2
 74
0
 75
0
 41
1.0
 42
0.0
  1

  3
Standard
100
AcDbAlignedDimension
 13
352.6015628143345566
 23
125.0030388056502915
 33
0.0
 14
352.6015628143345566
 24
123.0030388056502915
 34
0.0
1001
ACAD
1000
DSTYLE
1002
{
1070
144
1040
1.0
1070
40
1040
1.0
1002
}
  0
DIMENSION
  5
D0
100
AcDbEntity
  8
quote
 62
256
370
-1
 48
1.0
  6
ByLayer
100
AcDbDimension
 10
349.0
 20
141.0030388056503057
 30
0.0
 11
347.125
 21
142.0030388056503057
 31
0.0
 70
1
 71
8
 72
2
 74
0
 75
0
 41
1.0
 42
0.0
  1

  3
Standard
100
AcDbAlignedDimension
 13
352.6015628143345566
 23
141.0030388056503057
 33
0.0
 14
352.6015628143345566
 24
143.0030388056503057
 34
0.0
1001
ACAD
1000
DSTYLE
1002
{
1070
144
1040
1.0
1070
40
1040
1.0
1002
}
  0
DIMENSION
  5
D1
100
AcDbEntity
  8
quote
 62
256
370
-1
 48
1.0
  6
ByLayer
100
AcDbDimension
 10
295.6015628143345566
 20
214.8608444481876347
 30
0.0
 11
305.6015628143345566
 21
216.7358444481876347
 31
0.0
 70
1
 71
8
 72
2
 74
0
 75
0
 41
1.0
 42
0.0
  1

  3
Standard
100
AcDbAlignedDimension
 13
295.6015628143345566
 23
223.0030388056503057
 33
0.0
 14
315.6015628143345566
 24
223.0030388056503057
 34
0.0
1001
ACAD
1000
DSTYLE
1002
{
1070
144
1040
1.0
1070
40
1040
1.0
1002
}
  0
ENDSEC
  0
SECTION
  2
OBJECTS
  0
DICTIONARY
  5
C
100
AcDbDictionary
280
0
281
1
  3
ACAD_GROUP
350
D
  3
ACAD_LAYOUT
350
1A
  3
ACAD_MLINESTYLE
350
17
  3
ACAD_PLOTSETTINGS
350
19
  3
ACAD_PLOTSTYLENAME
350
E
  3
AcDbVariableDictionary
350
D2
  3
QCAD_OBJECTS
350
D3
  0
DICTIONARY
  5
D
100
AcDbDictionary
280
0
281
1
  0
ACDBDICTIONARYWDFLT
  5
E
100
AcDbDictionary
281
1
  3
Normal
350
F
100
AcDbDictionaryWithDefault
340
F
  0
ACDBPLACEHOLDER
  5
F
  0
DICTIONARY
  5
17
100
AcDbDictionary
280
0
281
1
  3
Standard
350
18
  0
MLINESTYLE
  5
18
100
AcDbMlineStyle
  2
STANDARD
 70
0
  3

 62
256
 51
90.0
 52
90.0
 71
2
 49
0.5
 62
256
  6
BYLAYER
 49
-0.5
 62
256
  6
BYLAYER
  0
DICTIONARY
  5
19
100
AcDbDictionary
280
0
281
1
  0
DICTIONARY
  5
1A
100
AcDbDictionary
281
1
  3
Layout1
350
1E
  3
Layout2
350
26
  3
Model
350
22
  0
LAYOUT
  5
1E
100
AcDbPlotSettings
  1

  2
none_device
  4

  6

 40
0.0
 41
0.0
 42
0.0
 43
0.0
 44
0.0
 45
0.0
 46
0.0
 47
0.0
 48
0.0
 49
0.0
140
0.0
141
0.0
142
1.0
143
1.0
 70
688
 72
0
 73
0
 74
5
  7

 75
16
147
1.0
148
0.0
149
0.0
100
AcDbLayout
  1
Layout1
 70
1
 71
1
 10
0.0
 20
0.0
 11
420.0
 21
297.0
 12
0.0
 22
0.0
 32
0.0
 14
100000000000000000000.0
 24
100000000000000000000.0
 34
100000000000000000000.0
 15
-100000000000000000000.0
 25
-100000000000000000000.0
 35
-100000000000000000000.0
146
0.0
 13
0.0
 23
0.0
 33
0.0
 16
1.0
 26
0.0
 36
0.0
 17
0.0
 27
1.0
 37
0.0
 76
0
330
1B
  0
LAYOUT
  5
22
100
AcDbPlotSettings
  1

  2
none_device
  4

  6

 40
0.0
 41
0.0
 42
0.0
 43
0.0
 44
0.0
 45
0.0
 46
0.0
 47
0.0
 48
0.0
 49
0.0
140
0.0
141
0.0
142
1.0
143
1.0
 70
1712
 72
0
 73
0
 74
0
  7

 75
0
147
1.0
148
0.0
149
0.0
100
AcDbLayout
  1
Model
 70
1
 71
0
 10
0.0
 20
0.0
 11
12.0
 21
9.0
 12
0.0
 22
0.0
 32
0.0
 14
0.0
 24
0.0
 34
0.0
 15
0.0
 25
0.0
 35
0.0
146
0.0
 13
0.0
 23
0.0
 33
0.0
 16
1.0
 26
0.0
 36
0.0
 17
0.0
 27
1.0
 37
0.0
 76
0
330
1F
  0
LAYOUT
  5
26
100
AcDbPlotSettings
  1

  2
none_device
  4

  6

 40
0.0
 41
0.0
 42
0.0
 43
0.0
 44
0.0
 45
0.0
 46
0.0
 47
0.0
 48
0.0
 49
0.0
140
0.0
141
0.0
142
1.0
143
1.0
 70
688
 72
0
 73
0
 74
5
  7

 75
16
147
1.0
148
0.0
149
0.0
100
AcDbLayout
  1
Layout2
 70
1
 71
2
 10
0.0
 20
0.0
 11
12.0
 21
9.0
 12
0.0
 22
0.0
 32
0.0
 14
0.0
 24
0.0
 34
0.0
 15
0.0
 25
0.0
 35
0.0
146
0.0
 13
0.0
 23
0.0
 33
0.0
 16
1.0
 26
0.0
 36
0.0
 17
0.0
 27
1.0
 37
0.0
 76
0
330
23
  0
DICTIONARY
  5
D2
100
AcDbDictionary
281
1
  3
DIMASSOC
350
D5
  3
HIDETEXT
350
D4
  0
DICTIONARYVAR
  5
D4
100
DictionaryVariables
280
0
  1
2
  0
DICTIONARYVAR
  5
D5
100
DictionaryVariables
280
0
  1
1
  0
DICTIONARY
  5
D3
100
AcDbDictionary
281
1
  3
CamExport/ConfigV2
350
D6
  3
ColorSettings/BackgroundColor
350
D7
  3
ColorSettings/ColorMode
350
D8
  3
Grid/DisplayGrid00
350
D9
  3
Grid/DisplayGrid01
350
DA
  3
Grid/DisplayGrid02
350
DB
  3
Grid/DisplayGrid03
350
DC
  3
Grid/GridSpacingX00
350
DD
  3
Grid/GridSpacingX01
350
DE
  3
Grid/GridSpacingX02
350
DF
  3
Grid/GridSpacingX03
350
E0
  3
Grid/GridSpacingY00
350
E1
  3
Grid/GridSpacingY01
350
E2
  3
Grid/GridSpacingY02
350
E3
  3
Grid/GridSpacingY03
350
E4
  3
Grid/IsometricGrid00
350
E5
  3
Grid/IsometricGrid01
350
E6
  3
Grid/IsometricGrid02
350
E7
  3
Grid/IsometricGrid03
350
E8
  3
Grid/IsometricProjection00
350
E9
  3
Grid/IsometricProjection01
350
EA
  3
Grid/IsometricProjection02
350
EB
  3
Grid/IsometricProjection03
350
EC
  3
Grid/MetaGridSpacingX00
350
ED
  3
Grid/MetaGridSpacingX01
350
EE
  3
Grid/MetaGridSpacingX02
350
EF
  3
Grid/MetaGridSpacingX03
350
F0
  3
Grid/MetaGridSpacingY00
350
F1
  3
Grid/MetaGridSpacingY01
350
F2
  3
Grid/MetaGridSpacingY02
350
F3
  3
Grid/MetaGridSpacingY03
350
F4
  3
MultiPageSettings/Columns
350
F5
  3
MultiPageSettings/GlueMarginsBottom
350
F6
  3
MultiPageSettings/GlueMarginsLeft
350
F7
  3
MultiPageSettings/GlueMarginsRight
350
F8
  3
MultiPageSettings/GlueMarginsTop
350
F9
  3
MultiPageSettings/PrintCropMarks
350
FA
  3
MultiPageSettings/Rows
350
FB
  3
PageSettings/OffsetX
350
FC
  3
PageSettings/OffsetY
350
FD
  3
PageSettings/PageOrientation
350
FE
  3
PageSettings/PaperHeight
350
FF
  3
PageSettings/PaperSizeName
350
100
  3
PageSettings/PaperWidth
350
101
  3
PageSettings/PointSize
350
102
  3
PageSettings/Scale
350
103
  3
PageSettings/ShowPaperBorders
350
104
  3
QCADVersion
350
105
  3
UnitSettings/PaperUnit
350
106
  3
ViewportCenter
350
107
  3
ViewportHeight
350
108
  3
ViewportWidth
350
109
  0
XRECORD
  5
D6
330
D3
100
AcDbXrecord
280
1
1000
GCodeMM
  0
XRECORD
  5
D7
330
D3
100
AcDbXrecord
280
1
1000
#ffffff
  0
XRECORD
  5
D8
330
D3
100
AcDbXrecord
280
1
1000
FullColor
  0
XRECORD
  5
D9
330
D3
100
AcDbXrecord
280
1
290
1
  0
XRECORD
  5
DA
330
D3
100
AcDbXrecord
280
1
290
1
  0
XRECORD
  5
DB
330
D3
100
AcDbXrecord
280
1
290
1
  0
XRECORD
  5
DC
330
D3
100
AcDbXrecord
280
1
290
1
  0
XRECORD
  5
DD
330
D3
100
AcDbXrecord
280
1
1000
auto
  0
XRECORD
  5
DE
330
D3
100
AcDbXrecord
280
1
1000
auto
  0
XRECORD
  5
DF
330
D3
100
AcDbXrecord
280
1
1000
auto
  0
XRECORD
  5
E0
330
D3
100
AcDbXrecord
280
1
1000
auto
  0
XRECORD
  5
E1
330
D3
100
AcDbXrecord
280
1
1000
auto
  0
XRECORD
  5
E2
330
D3
100
AcDbXrecord
280
1
1000
auto
  0
XRECORD
  5
E3
330
D3
100
AcDbXrecord
280
1
1000
auto
  0
XRECORD
  5
E4
330
D3
100
AcDbXrecord
280
1
1000
auto
  0
XRECORD
  5
E5
330
D3
100
AcDbXrecord
280
1
290
0
  0
XRECORD
  5
E6
330
D3
100
AcDbXrecord
280
1
290
0
  0
XRECORD
  5
E7
330
D3
100
AcDbXrecord
280
1
290
0
  0
XRECORD
  5
E8
330
D3
100
AcDbXrecord
280
1
290
0
  0
XRECORD
  5
E9
330
D3
100
AcDbXrecord
280
1
 90
65537
  0
XRECORD
  5
EA
330
D3
100
AcDbXrecord
280
1
 90
65537
  0
XRECORD
  5
EB
330
D3
100
AcDbXrecord
280
1
 90
65537
  0
XRECORD
  5
EC
330
D3
100
AcDbXrecord
280
1
 90
65537
  0
XRECORD
  5
ED
330
D3
100
AcDbXrecord
280
1
1000
auto
  0
XRECORD
  5
EE
330
D3
100
AcDbXrecord
280
1
1000
auto
  0
XRECORD
  5
EF
330
D3
100
AcDbXrecord
280
1
1000
auto
  0
XRECORD
  5
F0
330
D3
100
AcDbXrecord
280
1
1000
auto
  0
XRECORD
  5
F1
330
D3
100
AcDbXrecord
280
1
1000
auto
  0
XRECORD
  5
F2
330
D3
100
AcDbXrecord
280
1
1000
auto
  0
XRECORD
  5
F3
330
D3
100
AcDbXrecord
280
1
1000
auto
  0
XRECORD
  5
F4
330
D3
100
AcDbXrecord
280
1
1000
auto
  0
XRECORD
  5
F5
330
D3
100
AcDbXrecord
280
1
 90
1
  0
XRECORD
  5
F6
330
D3
100
AcDbXrecord
280
1
 40
10.0
  0
XRECORD
  5
F7
330
D3
100
AcDbXrecord
280
1
 40
10.0
  0
XRECORD
  5
F8
330
D3
100
AcDbXrecord
280
1
 40
10.0
  0
XRECORD
  5
F9
330
D3
100
AcDbXrecord
280
1
 40
10.0
  0
XRECORD
  5
FA
330
D3
100
AcDbXrecord
280
1
290
0
  0
XRECORD
  5
FB
330
D3
100
AcDbXrecord
280
1
 90
1
  0
XRECORD
  5
FC
330
D3
100
AcDbXrecord
280
1
1000

  0
XRECORD
  5
FD
330
D3
100
AcDbXrecord
280
1
1000

  0
XRECORD
  5
FE
330
D3
100
AcDbXrecord
280
1
1000
Landscape
  0
XRECORD
  5
FF
330
D3
100
AcDbXrecord
280
1
 40
297.0
  0
XRECORD
  5
100
330
D3
100
AcDbXrecord
280
1
1000
ISO A4
  0
XRECORD
  5
101
330
D3
100
AcDbXrecord
280
1
 40
210.0
  0
XRECORD
  5
102
330
D3
100
AcDbXrecord
280
1
1000
0.5
  0
XRECORD
  5
103
330
D3
100
AcDbXrecord
280
1
1000
1:2,5
  0
XRECORD
  5
104
330
D3
100
AcDbXrecord
280
1
290
1
  0
XRECORD
  5
105
330
D3
100
AcDbXrecord
280
1
1000
3.21.3
  0
XRECORD
  5
106
330
D3
100
AcDbXrecord
280
1
 90
4
  0
XRECORD
  5
108
330
D3
100
AcDbXrecord
280
1
 40
624.3307405827578123
  0
XRECORD
  5
109
330
D3
100
AcDbXrecord
280
1
 40
723.5621165694212777
  0
ENDSEC
  0
EOF
